<mxfile host="app.diagrams.net" agent="Mozilla/5.0 (Windows NT 10.0; Win64; x64) AppleWebKit/537.36 (KHTML, like Gecko) Chrome/130.0.0.0 Safari/537.36 Edg/130.0.0.0" version="24.8.4">
  <diagram name="第 1 页" id="oOToEnMRdJCnhnBbrD3q">
    <mxGraphModel dx="921" dy="598" grid="1" gridSize="10" guides="1" tooltips="1" connect="1" arrows="1" fold="1" page="1" pageScale="1" pageWidth="827" pageHeight="1169" math="0" shadow="0">
      <root>
        <mxCell id="0" />
        <mxCell id="1" parent="0" />
        <mxCell id="7SOkIHzvT6pUfmzKAx0d-3" value="&lt;font face=&quot;Comic Sans MS&quot; style=&quot;font-size: 19px;&quot;&gt;Presentation Layer&lt;/font&gt;" style="whiteSpace=wrap;html=1;fillColor=#dae8fc;rounded=1;strokeColor=#6c8ebf;" vertex="1" parent="1">
          <mxGeometry x="220" y="460" width="290" height="50" as="geometry" />
        </mxCell>
        <mxCell id="7SOkIHzvT6pUfmzKAx0d-4" value="&lt;font face=&quot;Comic Sans MS&quot; style=&quot;font-size: 19px;&quot;&gt;Business Logic Layer&lt;/font&gt;" style="whiteSpace=wrap;html=1;fillColor=#fff2cc;rounded=1;strokeColor=#d6b656;" vertex="1" parent="1">
          <mxGeometry x="220" y="530" width="290" height="50" as="geometry" />
        </mxCell>
        <mxCell id="7SOkIHzvT6pUfmzKAx0d-5" value="&lt;font face=&quot;Comic Sans MS&quot; style=&quot;font-size: 19px;&quot;&gt;Data Access Layer&lt;/font&gt;" style="whiteSpace=wrap;html=1;fillColor=#d5e8d4;rounded=1;strokeColor=#82b366;" vertex="1" parent="1">
          <mxGeometry x="220" y="600" width="290" height="50" as="geometry" />
        </mxCell>
        <mxCell id="7SOkIHzvT6pUfmzKAx0d-6" value="" style="rounded=1;whiteSpace=wrap;html=1;fillColor=none;" vertex="1" parent="1">
          <mxGeometry x="200" y="410" width="330" height="260" as="geometry" />
        </mxCell>
        <mxCell id="7SOkIHzvT6pUfmzKAx0d-7" value="&lt;font face=&quot;Verdana&quot; style=&quot;font-size: 15px;&quot;&gt;Three-Layers System Architecture&lt;/font&gt;" style="text;strokeColor=none;fillColor=none;html=1;fontSize=24;fontStyle=1;verticalAlign=middle;align=center;" vertex="1" parent="1">
          <mxGeometry x="314" y="410" width="100" height="40" as="geometry" />
        </mxCell>
        <mxCell id="7SOkIHzvT6pUfmzKAx0d-9" value="&lt;font style=&quot;font-size: 13px;&quot; face=&quot;Comic Sans MS&quot;&gt;Responsible for user interaction&lt;/font&gt;" style="shape=note;whiteSpace=wrap;html=1;backgroundOutline=1;darkOpacity=0.05;" vertex="1" parent="1">
          <mxGeometry x="550" y="460" width="210" height="50" as="geometry" />
        </mxCell>
        <mxCell id="7SOkIHzvT6pUfmzKAx0d-10" value="&lt;font face=&quot;Comic Sans MS&quot;&gt;&lt;span style=&quot;font-size: 13px;&quot;&gt;Responsible for the business&lt;/span&gt;&lt;/font&gt;&lt;div&gt;&lt;font face=&quot;Comic Sans MS&quot;&gt;&lt;span style=&quot;font-size: 13px;&quot;&gt;&amp;nbsp;logic processing&lt;/span&gt;&lt;/font&gt;&lt;/div&gt;" style="shape=note;whiteSpace=wrap;html=1;backgroundOutline=1;darkOpacity=0.05;" vertex="1" parent="1">
          <mxGeometry x="550" y="530" width="210" height="50" as="geometry" />
        </mxCell>
        <mxCell id="7SOkIHzvT6pUfmzKAx0d-11" value="&lt;font face=&quot;Comic Sans MS&quot;&gt;&lt;span style=&quot;font-size: 13px;&quot;&gt;Responsible for data management&lt;/span&gt;&lt;/font&gt;" style="shape=note;whiteSpace=wrap;html=1;backgroundOutline=1;darkOpacity=0.05;" vertex="1" parent="1">
          <mxGeometry x="550" y="600" width="210" height="50" as="geometry" />
        </mxCell>
        <mxCell id="7SOkIHzvT6pUfmzKAx0d-12" value="" style="endArrow=classic;html=1;rounded=0;entryX=0.099;entryY=0.155;entryDx=0;entryDy=0;entryPerimeter=0;" edge="1" parent="1">
          <mxGeometry width="50" height="50" relative="1" as="geometry">
            <mxPoint x="510" y="485.22597648087856" as="sourcePoint" />
            <mxPoint x="550.79" y="484.78" as="targetPoint" />
          </mxGeometry>
        </mxCell>
        <mxCell id="7SOkIHzvT6pUfmzKAx0d-13" value="" style="endArrow=classic;html=1;rounded=0;entryX=0.099;entryY=0.155;entryDx=0;entryDy=0;entryPerimeter=0;" edge="1" parent="1">
          <mxGeometry width="50" height="50" relative="1" as="geometry">
            <mxPoint x="510" y="555.2259764808786" as="sourcePoint" />
            <mxPoint x="550.79" y="554.78" as="targetPoint" />
          </mxGeometry>
        </mxCell>
        <mxCell id="7SOkIHzvT6pUfmzKAx0d-14" value="" style="endArrow=classic;html=1;rounded=0;entryX=0.099;entryY=0.155;entryDx=0;entryDy=0;entryPerimeter=0;" edge="1" parent="1">
          <mxGeometry width="50" height="50" relative="1" as="geometry">
            <mxPoint x="510" y="625.2259764808786" as="sourcePoint" />
            <mxPoint x="550.79" y="624.78" as="targetPoint" />
          </mxGeometry>
        </mxCell>
      </root>
    </mxGraphModel>
  </diagram>
</mxfile>
